<svg xmlns="http://www.w3.org/2000/svg" width="800" height="350" viewBox="0 0 800 350">
  <defs>
    <linearGradient id="bg_ex094" x1="0%" y1="0%" x2="100%" y2="100%">
      <stop offset="0%" style="stop-color:#B7950B;stop-opacity:1" />
      <stop offset="100%" style="stop-color:#5E4B00;stop-opacity:1" />
    </linearGradient>
    <linearGradient id="ov_ex094" x1="0%" y1="0%" x2="0%" y2="100%">
      <stop offset="0%" style="stop-color:rgba(0,0,0,0.2);stop-opacity:1" />
      <stop offset="100%" style="stop-color:rgba(0,0,0,0.55);stop-opacity:1" />
    </linearGradient>
  </defs>
  <rect width="800" height="350" fill="url(#bg_ex094)"/>
  <rect width="800" height="350" fill="url(#ov_ex094)"/>
    <circle cx="400" cy="180" r="40" fill="none" stroke="#F8C471" stroke-width="2" opacity="0.35"/>
  <circle cx="400" cy="180" r="70" fill="none" stroke="#F8C471" stroke-width="1.2" opacity="0.15"/>
  <circle cx="400" cy="180" r="100" fill="none" stroke="#F8C471" stroke-width="1.2" opacity="0.15"/>
  <polygon points="300,250 340,140 380,220 420,120 460,200 500,250" fill="#F8C471" opacity="0.15"/>
  <polygon points="320,250 360,170 400,230 440,160 480,250" fill="#F8C471" opacity="0.08"/>
  <line x1="40" y1="40" x2="100" y2="40" stroke="#F8C471" stroke-width="1" opacity="0.3"/>
  <line x1="40" y1="40" x2="40" y2="100" stroke="#F8C471" stroke-width="1" opacity="0.3"/>
  <line x1="700" y1="300" x2="760" y2="300" stroke="#F8C471" stroke-width="1" opacity="0.3"/>
  <line x1="760" y1="300" x2="760" y2="240" stroke="#F8C471" stroke-width="1" opacity="0.3"/>
  <text x="400" y="155" font-family="serif" font-size="32" fill="#F8C471" text-anchor="middle" font-weight="bold">湖南——岳麓书院：实事求是策源地</text>
  <rect x="310" y="210" width="180" height="24" rx="12" fill="rgba(255,255,255,0.08)" stroke="#F8C471" stroke-width="0.5"/>
  <text x="400" y="226" font-family="sans-serif" font-size="12" fill="#F8C471" text-anchor="middle" opacity="0.85">&#9679; 华中地区  |  近代与现代</text>
  <line x1="300" y1="255" x2="500" y2="255" stroke="#F8C471" stroke-width="0.5" opacity="0.3"/>
  <text x="400" y="295" font-family="sans-serif" font-size="13" fill="#FAD7A0" text-anchor="middle" opacity="0.7">岳麓书院位于湖南省长沙市岳麓山下，是中国四大书院之一，创办于……</text>
</svg>