<svg xmlns="http://www.w3.org/2000/svg" width="800" height="350" viewBox="0 0 800 350">
  <defs>
    <linearGradient id="bg_ex108" x1="0%" y1="0%" x2="100%" y2="100%">
      <stop offset="0%" style="stop-color:#1E8449;stop-opacity:1" />
      <stop offset="100%" style="stop-color:#0E4B20;stop-opacity:1" />
    </linearGradient>
    <linearGradient id="ov_ex108" x1="0%" y1="0%" x2="0%" y2="100%">
      <stop offset="0%" style="stop-color:rgba(0,0,0,0.2);stop-opacity:1" />
      <stop offset="100%" style="stop-color:rgba(0,0,0,0.55);stop-opacity:1" />
    </linearGradient>
  </defs>
  <rect width="800" height="350" fill="url(#bg_ex108)"/>
  <rect width="800" height="350" fill="url(#ov_ex108)"/>
    <circle cx="400" cy="180" r="40" fill="none" stroke="#82E0AA" stroke-width="2" opacity="0.35"/>
  <circle cx="400" cy="180" r="70" fill="none" stroke="#82E0AA" stroke-width="1.2" opacity="0.15"/>
  <circle cx="400" cy="180" r="100" fill="none" stroke="#82E0AA" stroke-width="1.2" opacity="0.15"/>
  <circle cx="487" cy="243" r="29" fill="none" stroke="#82E0AA" stroke-width="1" opacity="0.15"/>
  <circle cx="493" cy="189" r="20" fill="none" stroke="#82E0AA" stroke-width="1" opacity="0.15"/>
  <circle cx="359" cy="183" r="20" fill="none" stroke="#82E0AA" stroke-width="1" opacity="0.15"/>
  <line x1="40" y1="40" x2="100" y2="40" stroke="#82E0AA" stroke-width="1" opacity="0.3"/>
  <line x1="40" y1="40" x2="40" y2="100" stroke="#82E0AA" stroke-width="1" opacity="0.3"/>
  <line x1="700" y1="300" x2="760" y2="300" stroke="#82E0AA" stroke-width="1" opacity="0.3"/>
  <line x1="760" y1="300" x2="760" y2="240" stroke="#82E0AA" stroke-width="1" opacity="0.3"/>
  <text x="400" y="155" font-family="serif" font-size="32" fill="#82E0AA" text-anchor="middle" font-weight="bold">澳门——大三巴牌坊与澳门历史城区</text>
  <rect x="310" y="210" width="180" height="24" rx="12" fill="rgba(255,255,255,0.08)" stroke="#82E0AA" stroke-width="0.5"/>
  <text x="400" y="226" font-family="sans-serif" font-size="12" fill="#82E0AA" text-anchor="middle" opacity="0.85">&#9679; 华南地区  |  近代</text>
  <line x1="300" y1="255" x2="500" y2="255" stroke="#82E0AA" stroke-width="0.5" opacity="0.3"/>
  <text x="400" y="295" font-family="sans-serif" font-size="13" fill="#A9DFBF" text-anchor="middle" opacity="0.7">大三巴牌坊是澳门最具代表性的地标，原是圣保禄大教堂的前壁……</text>
</svg>